<?xml version="1.0" encoding="utf-8"?>
<svg width="28px" height="28px" viewBox="0 0 28 28" version="1.1" xmlns:xlink="http://www.w3.org/1999/xlink" xmlns="http://www.w3.org/2000/svg">
  <defs>
    <linearGradient gradientUnits="objectBoundingBox" x1="0" y1="0" x2="1" y2="1" id="gradient_1">
      <stop offset="0%" stop-color="#483CF0" />
      <stop offset="100%" stop-color="#3F34F0" />
    </linearGradient>
  </defs>
  <g id="Svg">
    <path d="M16.7 12.6C20.9532 12.6 24.4 16.0468 24.4 20.3L24.4 20.3C24.4 24.5532 20.9532 28 16.7 28L14.7 28C9.34211 28 5 23.6579 5 18.3L5 12.6L16.7 12.6Z" id="Rectangle-2" fill="#B4B4B4" stroke="none" clip-path="url(#clip_1)" />
    <path d="M12.6005 1.36567e-06C20.0286 -0.00346686 20.413 6.6 20.4005 7.60003C20.388 8.60007 20.404 13.5027 12.6005 17.6001C10.916 18.4661 5.37856 20.728 5.29844 20.7001C5.0005 19.577 5 18.588 5 18.588L5.0005 7.60003C5.0005 7.60003 5.17242 0.00346959 12.6005 1.36567e-06Z" id="New-shape-8" fill="url(#gradient_1)" fill-rule="evenodd" stroke="none" clip-path="url(#clip_1)" />
  </g>
</svg>